<mxfile host="Electron" agent="Mozilla/5.0 (Windows NT 10.0; Win64; x64) AppleWebKit/537.36 (KHTML, like Gecko) draw.io/26.0.16 Chrome/132.0.6834.196 Electron/34.2.0 Safari/537.36" version="26.0.16">
  <diagram name="第 1 页" id="sHrhaMeTgjKSSYhMS5-9">
    <mxGraphModel dx="1050" dy="629" grid="1" gridSize="10" guides="1" tooltips="1" connect="1" arrows="1" fold="1" page="1" pageScale="1" pageWidth="827" pageHeight="1169" math="0" shadow="0">
      <root>
        <mxCell id="0" />
        <mxCell id="1" parent="0" />
        <mxCell id="QZ5Pt41ZtIyeh1Iveysu-1" style="edgeStyle=orthogonalEdgeStyle;rounded=0;orthogonalLoop=1;jettySize=auto;html=1;strokeWidth=3;" edge="1" parent="1" source="QZ5Pt41ZtIyeh1Iveysu-2">
          <mxGeometry relative="1" as="geometry">
            <mxPoint x="221" y="250" as="targetPoint" />
          </mxGeometry>
        </mxCell>
        <mxCell id="QZ5Pt41ZtIyeh1Iveysu-2" value="CPPSet1 (D)" style="rounded=0;whiteSpace=wrap;html=1;fontSize=20;fontFamily=Times New Roman;fontStyle=1;fillColor=#e1d5e7;strokeColor=#9673a6;" vertex="1" parent="1">
          <mxGeometry x="61" y="176" width="320" height="40" as="geometry" />
        </mxCell>
        <mxCell id="QZ5Pt41ZtIyeh1Iveysu-3" value="" style="shape=table;startSize=0;container=1;collapsible=0;childLayout=tableLayout;fontSize=20;fontFamily=Times New Roman;fillColor=#d5e8d4;strokeColor=#82b366;" vertex="1" parent="1">
          <mxGeometry x="61" y="252" width="320" height="40" as="geometry" />
        </mxCell>
        <mxCell id="QZ5Pt41ZtIyeh1Iveysu-4" value="" style="shape=tableRow;horizontal=0;startSize=0;swimlaneHead=0;swimlaneBody=0;strokeColor=inherit;top=0;left=0;bottom=0;right=0;collapsible=0;dropTarget=0;fillColor=none;points=[[0,0.5],[1,0.5]];portConstraint=eastwest;fontSize=16;fontFamily=Times New Roman;" vertex="1" parent="QZ5Pt41ZtIyeh1Iveysu-3">
          <mxGeometry width="320" height="40" as="geometry" />
        </mxCell>
        <mxCell id="QZ5Pt41ZtIyeh1Iveysu-5" value="&lt;font style=&quot;font-size: 20px;&quot;&gt;D1&lt;/font&gt;" style="shape=partialRectangle;html=1;whiteSpace=wrap;connectable=0;strokeColor=inherit;overflow=hidden;fillColor=none;top=0;left=0;bottom=0;right=0;pointerEvents=1;fontSize=16;fontFamily=Times New Roman;" vertex="1" parent="QZ5Pt41ZtIyeh1Iveysu-4">
          <mxGeometry width="64" height="40" as="geometry">
            <mxRectangle width="64" height="40" as="alternateBounds" />
          </mxGeometry>
        </mxCell>
        <mxCell id="QZ5Pt41ZtIyeh1Iveysu-6" value="&lt;font style=&quot;font-size: 20px;&quot;&gt;D2&lt;/font&gt;" style="shape=partialRectangle;html=1;whiteSpace=wrap;connectable=0;strokeColor=inherit;overflow=hidden;fillColor=none;top=0;left=0;bottom=0;right=0;pointerEvents=1;fontSize=16;fontFamily=Times New Roman;" vertex="1" parent="QZ5Pt41ZtIyeh1Iveysu-4">
          <mxGeometry x="64" width="64" height="40" as="geometry">
            <mxRectangle width="64" height="40" as="alternateBounds" />
          </mxGeometry>
        </mxCell>
        <mxCell id="QZ5Pt41ZtIyeh1Iveysu-7" value="&lt;font style=&quot;font-size: 20px;&quot;&gt;D3&lt;/font&gt;" style="shape=partialRectangle;html=1;whiteSpace=wrap;connectable=0;strokeColor=inherit;overflow=hidden;fillColor=none;top=0;left=0;bottom=0;right=0;pointerEvents=1;fontSize=16;fontFamily=Times New Roman;" vertex="1" parent="QZ5Pt41ZtIyeh1Iveysu-4">
          <mxGeometry x="128" width="64" height="40" as="geometry">
            <mxRectangle width="64" height="40" as="alternateBounds" />
          </mxGeometry>
        </mxCell>
        <mxCell id="QZ5Pt41ZtIyeh1Iveysu-8" value="&lt;font style=&quot;font-size: 20px;&quot;&gt;D4&lt;/font&gt;" style="shape=partialRectangle;html=1;whiteSpace=wrap;connectable=0;strokeColor=inherit;overflow=hidden;fillColor=none;top=0;left=0;bottom=0;right=0;pointerEvents=1;fontSize=16;fontFamily=Times New Roman;" vertex="1" parent="QZ5Pt41ZtIyeh1Iveysu-4">
          <mxGeometry x="192" width="64" height="40" as="geometry">
            <mxRectangle width="64" height="40" as="alternateBounds" />
          </mxGeometry>
        </mxCell>
        <mxCell id="QZ5Pt41ZtIyeh1Iveysu-9" value="&lt;font style=&quot;font-size: 20px;&quot;&gt;D5&lt;/font&gt;" style="shape=partialRectangle;html=1;whiteSpace=wrap;connectable=0;strokeColor=inherit;overflow=hidden;fillColor=none;top=0;left=0;bottom=0;right=0;pointerEvents=1;fontSize=16;fontFamily=Times New Roman;" vertex="1" parent="QZ5Pt41ZtIyeh1Iveysu-4">
          <mxGeometry x="256" width="64" height="40" as="geometry">
            <mxRectangle width="64" height="40" as="alternateBounds" />
          </mxGeometry>
        </mxCell>
        <mxCell id="QZ5Pt41ZtIyeh1Iveysu-10" value="" style="shape=table;startSize=0;container=1;collapsible=0;childLayout=tableLayout;fontSize=20;fontFamily=Times New Roman;fillColor=#dae8fc;strokeColor=#6c8ebf;" vertex="1" parent="1">
          <mxGeometry x="61" y="343" width="256" height="40" as="geometry" />
        </mxCell>
        <mxCell id="QZ5Pt41ZtIyeh1Iveysu-11" value="" style="shape=tableRow;horizontal=0;startSize=0;swimlaneHead=0;swimlaneBody=0;strokeColor=inherit;top=0;left=0;bottom=0;right=0;collapsible=0;dropTarget=0;fillColor=none;points=[[0,0.5],[1,0.5]];portConstraint=eastwest;fontSize=16;fontFamily=Times New Roman;" vertex="1" parent="QZ5Pt41ZtIyeh1Iveysu-10">
          <mxGeometry width="256" height="40" as="geometry" />
        </mxCell>
        <mxCell id="QZ5Pt41ZtIyeh1Iveysu-12" value="&lt;font style=&quot;font-size: 20px;&quot;&gt;D1&lt;/font&gt;" style="shape=partialRectangle;html=1;whiteSpace=wrap;connectable=0;strokeColor=inherit;overflow=hidden;fillColor=none;top=0;left=0;bottom=0;right=0;pointerEvents=1;fontSize=16;fontFamily=Times New Roman;" vertex="1" parent="QZ5Pt41ZtIyeh1Iveysu-11">
          <mxGeometry width="64" height="40" as="geometry">
            <mxRectangle width="64" height="40" as="alternateBounds" />
          </mxGeometry>
        </mxCell>
        <mxCell id="QZ5Pt41ZtIyeh1Iveysu-13" value="&lt;font style=&quot;font-size: 20px;&quot;&gt;D2&lt;/font&gt;" style="shape=partialRectangle;html=1;whiteSpace=wrap;connectable=0;strokeColor=inherit;overflow=hidden;fillColor=none;top=0;left=0;bottom=0;right=0;pointerEvents=1;fontSize=16;fontFamily=Times New Roman;" vertex="1" parent="QZ5Pt41ZtIyeh1Iveysu-11">
          <mxGeometry x="64" width="64" height="40" as="geometry">
            <mxRectangle width="64" height="40" as="alternateBounds" />
          </mxGeometry>
        </mxCell>
        <mxCell id="QZ5Pt41ZtIyeh1Iveysu-14" value="&lt;font style=&quot;font-size: 20px;&quot;&gt;D3&lt;/font&gt;" style="shape=partialRectangle;html=1;whiteSpace=wrap;connectable=0;strokeColor=inherit;overflow=hidden;fillColor=none;top=0;left=0;bottom=0;right=0;pointerEvents=1;fontSize=16;fontFamily=Times New Roman;" vertex="1" parent="QZ5Pt41ZtIyeh1Iveysu-11">
          <mxGeometry x="128" width="62" height="40" as="geometry">
            <mxRectangle width="62" height="40" as="alternateBounds" />
          </mxGeometry>
        </mxCell>
        <mxCell id="QZ5Pt41ZtIyeh1Iveysu-15" value="&lt;font style=&quot;font-size: 20px;&quot;&gt;D4&lt;/font&gt;" style="shape=partialRectangle;html=1;whiteSpace=wrap;connectable=0;strokeColor=inherit;overflow=hidden;fillColor=none;top=0;left=0;bottom=0;right=0;pointerEvents=1;fontSize=16;fontFamily=Times New Roman;" vertex="1" parent="QZ5Pt41ZtIyeh1Iveysu-11">
          <mxGeometry x="190" width="66" height="40" as="geometry">
            <mxRectangle width="66" height="40" as="alternateBounds" />
          </mxGeometry>
        </mxCell>
        <mxCell id="QZ5Pt41ZtIyeh1Iveysu-16" value="" style="edgeStyle=orthogonalEdgeStyle;rounded=0;orthogonalLoop=1;jettySize=auto;html=1;entryX=0;entryY=0.5;entryDx=0;entryDy=0;strokeWidth=2;" edge="1" parent="1" source="QZ5Pt41ZtIyeh1Iveysu-17" target="QZ5Pt41ZtIyeh1Iveysu-52">
          <mxGeometry relative="1" as="geometry" />
        </mxCell>
        <mxCell id="QZ5Pt41ZtIyeh1Iveysu-17" value="&lt;font style=&quot;font-size: 20px;&quot;&gt;D5&lt;/font&gt;" style="rounded=0;whiteSpace=wrap;html=1;fillColor=#f8cecc;strokeColor=#b85450;fontFamily=Times New Roman;" vertex="1" parent="1">
          <mxGeometry x="359" y="343" width="60" height="40" as="geometry" />
        </mxCell>
        <mxCell id="QZ5Pt41ZtIyeh1Iveysu-18" value="" style="shape=table;startSize=0;container=1;collapsible=0;childLayout=tableLayout;fontSize=20;fontFamily=Times New Roman;fillColor=#dae8fc;strokeColor=#6c8ebf;" vertex="1" parent="1">
          <mxGeometry x="61" y="396" width="256" height="40" as="geometry" />
        </mxCell>
        <mxCell id="QZ5Pt41ZtIyeh1Iveysu-19" value="" style="shape=tableRow;horizontal=0;startSize=0;swimlaneHead=0;swimlaneBody=0;strokeColor=inherit;top=0;left=0;bottom=0;right=0;collapsible=0;dropTarget=0;fillColor=none;points=[[0,0.5],[1,0.5]];portConstraint=eastwest;fontSize=16;fontFamily=Times New Roman;" vertex="1" parent="QZ5Pt41ZtIyeh1Iveysu-18">
          <mxGeometry width="256" height="40" as="geometry" />
        </mxCell>
        <mxCell id="QZ5Pt41ZtIyeh1Iveysu-20" value="&lt;font style=&quot;font-size: 20px;&quot;&gt;D1&lt;/font&gt;" style="shape=partialRectangle;html=1;whiteSpace=wrap;connectable=0;strokeColor=inherit;overflow=hidden;fillColor=none;top=0;left=0;bottom=0;right=0;pointerEvents=1;fontSize=16;fontFamily=Times New Roman;" vertex="1" parent="QZ5Pt41ZtIyeh1Iveysu-19">
          <mxGeometry width="64" height="40" as="geometry">
            <mxRectangle width="64" height="40" as="alternateBounds" />
          </mxGeometry>
        </mxCell>
        <mxCell id="QZ5Pt41ZtIyeh1Iveysu-21" value="&lt;font style=&quot;font-size: 20px;&quot;&gt;D2&lt;/font&gt;" style="shape=partialRectangle;html=1;whiteSpace=wrap;connectable=0;strokeColor=inherit;overflow=hidden;fillColor=none;top=0;left=0;bottom=0;right=0;pointerEvents=1;fontSize=16;fontFamily=Times New Roman;" vertex="1" parent="QZ5Pt41ZtIyeh1Iveysu-19">
          <mxGeometry x="64" width="64" height="40" as="geometry">
            <mxRectangle width="64" height="40" as="alternateBounds" />
          </mxGeometry>
        </mxCell>
        <mxCell id="QZ5Pt41ZtIyeh1Iveysu-22" value="&lt;font style=&quot;font-size: 20px;&quot;&gt;D3&lt;/font&gt;" style="shape=partialRectangle;html=1;whiteSpace=wrap;connectable=0;strokeColor=inherit;overflow=hidden;fillColor=none;top=0;left=0;bottom=0;right=0;pointerEvents=1;fontSize=16;fontFamily=Times New Roman;" vertex="1" parent="QZ5Pt41ZtIyeh1Iveysu-19">
          <mxGeometry x="128" width="62" height="40" as="geometry">
            <mxRectangle width="62" height="40" as="alternateBounds" />
          </mxGeometry>
        </mxCell>
        <mxCell id="QZ5Pt41ZtIyeh1Iveysu-23" value="&lt;font style=&quot;font-size: 20px;&quot;&gt;D5&lt;/font&gt;" style="shape=partialRectangle;html=1;whiteSpace=wrap;connectable=0;strokeColor=inherit;overflow=hidden;fillColor=none;top=0;left=0;bottom=0;right=0;pointerEvents=1;fontSize=16;fontFamily=Times New Roman;" vertex="1" parent="QZ5Pt41ZtIyeh1Iveysu-19">
          <mxGeometry x="190" width="66" height="40" as="geometry">
            <mxRectangle width="66" height="40" as="alternateBounds" />
          </mxGeometry>
        </mxCell>
        <mxCell id="QZ5Pt41ZtIyeh1Iveysu-24" value="" style="edgeStyle=orthogonalEdgeStyle;rounded=0;orthogonalLoop=1;jettySize=auto;html=1;entryX=0;entryY=0.5;entryDx=0;entryDy=0;strokeWidth=2;" edge="1" parent="1" source="QZ5Pt41ZtIyeh1Iveysu-25" target="QZ5Pt41ZtIyeh1Iveysu-53">
          <mxGeometry relative="1" as="geometry" />
        </mxCell>
        <mxCell id="QZ5Pt41ZtIyeh1Iveysu-25" value="&lt;font style=&quot;font-size: 20px;&quot;&gt;D4&lt;/font&gt;" style="rounded=0;whiteSpace=wrap;html=1;fillColor=#f8cecc;strokeColor=#b85450;fontFamily=Times New Roman;" vertex="1" parent="1">
          <mxGeometry x="359" y="396" width="60" height="40" as="geometry" />
        </mxCell>
        <mxCell id="QZ5Pt41ZtIyeh1Iveysu-26" value="" style="shape=table;startSize=0;container=1;collapsible=0;childLayout=tableLayout;fontSize=20;fontFamily=Times New Roman;fillColor=#dae8fc;strokeColor=#6c8ebf;" vertex="1" parent="1">
          <mxGeometry x="61" y="449" width="256" height="40" as="geometry" />
        </mxCell>
        <mxCell id="QZ5Pt41ZtIyeh1Iveysu-27" value="" style="shape=tableRow;horizontal=0;startSize=0;swimlaneHead=0;swimlaneBody=0;strokeColor=inherit;top=0;left=0;bottom=0;right=0;collapsible=0;dropTarget=0;fillColor=none;points=[[0,0.5],[1,0.5]];portConstraint=eastwest;fontSize=16;fontFamily=Times New Roman;" vertex="1" parent="QZ5Pt41ZtIyeh1Iveysu-26">
          <mxGeometry width="256" height="40" as="geometry" />
        </mxCell>
        <mxCell id="QZ5Pt41ZtIyeh1Iveysu-28" value="&lt;font style=&quot;font-size: 20px;&quot;&gt;D1&lt;/font&gt;" style="shape=partialRectangle;html=1;whiteSpace=wrap;connectable=0;strokeColor=inherit;overflow=hidden;fillColor=none;top=0;left=0;bottom=0;right=0;pointerEvents=1;fontSize=16;fontFamily=Times New Roman;" vertex="1" parent="QZ5Pt41ZtIyeh1Iveysu-27">
          <mxGeometry width="64" height="40" as="geometry">
            <mxRectangle width="64" height="40" as="alternateBounds" />
          </mxGeometry>
        </mxCell>
        <mxCell id="QZ5Pt41ZtIyeh1Iveysu-29" value="&lt;font style=&quot;font-size: 20px;&quot;&gt;D2&lt;/font&gt;" style="shape=partialRectangle;html=1;whiteSpace=wrap;connectable=0;strokeColor=inherit;overflow=hidden;fillColor=none;top=0;left=0;bottom=0;right=0;pointerEvents=1;fontSize=16;fontFamily=Times New Roman;" vertex="1" parent="QZ5Pt41ZtIyeh1Iveysu-27">
          <mxGeometry x="64" width="64" height="40" as="geometry">
            <mxRectangle width="64" height="40" as="alternateBounds" />
          </mxGeometry>
        </mxCell>
        <mxCell id="QZ5Pt41ZtIyeh1Iveysu-30" value="&lt;font style=&quot;font-size: 20px;&quot;&gt;D4&lt;/font&gt;" style="shape=partialRectangle;html=1;whiteSpace=wrap;connectable=0;strokeColor=inherit;overflow=hidden;fillColor=none;top=0;left=0;bottom=0;right=0;pointerEvents=1;fontSize=16;fontFamily=Times New Roman;" vertex="1" parent="QZ5Pt41ZtIyeh1Iveysu-27">
          <mxGeometry x="128" width="62" height="40" as="geometry">
            <mxRectangle width="62" height="40" as="alternateBounds" />
          </mxGeometry>
        </mxCell>
        <mxCell id="QZ5Pt41ZtIyeh1Iveysu-31" value="&lt;font style=&quot;font-size: 20px;&quot;&gt;D5&lt;/font&gt;" style="shape=partialRectangle;html=1;whiteSpace=wrap;connectable=0;strokeColor=inherit;overflow=hidden;fillColor=none;top=0;left=0;bottom=0;right=0;pointerEvents=1;fontSize=16;fontFamily=Times New Roman;" vertex="1" parent="QZ5Pt41ZtIyeh1Iveysu-27">
          <mxGeometry x="190" width="66" height="40" as="geometry">
            <mxRectangle width="66" height="40" as="alternateBounds" />
          </mxGeometry>
        </mxCell>
        <mxCell id="QZ5Pt41ZtIyeh1Iveysu-32" value="" style="shape=table;startSize=0;container=1;collapsible=0;childLayout=tableLayout;fontSize=20;fontFamily=Times New Roman;fillColor=#dae8fc;strokeColor=#6c8ebf;" vertex="1" parent="1">
          <mxGeometry x="61" y="503" width="256" height="40" as="geometry" />
        </mxCell>
        <mxCell id="QZ5Pt41ZtIyeh1Iveysu-33" value="" style="shape=tableRow;horizontal=0;startSize=0;swimlaneHead=0;swimlaneBody=0;strokeColor=inherit;top=0;left=0;bottom=0;right=0;collapsible=0;dropTarget=0;fillColor=none;points=[[0,0.5],[1,0.5]];portConstraint=eastwest;fontSize=16;fontFamily=Times New Roman;" vertex="1" parent="QZ5Pt41ZtIyeh1Iveysu-32">
          <mxGeometry width="256" height="40" as="geometry" />
        </mxCell>
        <mxCell id="QZ5Pt41ZtIyeh1Iveysu-34" value="&lt;font style=&quot;font-size: 20px;&quot;&gt;D1&lt;/font&gt;" style="shape=partialRectangle;html=1;whiteSpace=wrap;connectable=0;strokeColor=inherit;overflow=hidden;fillColor=none;top=0;left=0;bottom=0;right=0;pointerEvents=1;fontSize=16;fontFamily=Times New Roman;" vertex="1" parent="QZ5Pt41ZtIyeh1Iveysu-33">
          <mxGeometry width="64" height="40" as="geometry">
            <mxRectangle width="64" height="40" as="alternateBounds" />
          </mxGeometry>
        </mxCell>
        <mxCell id="QZ5Pt41ZtIyeh1Iveysu-35" value="&lt;font style=&quot;font-size: 20px;&quot;&gt;D3&lt;/font&gt;" style="shape=partialRectangle;html=1;whiteSpace=wrap;connectable=0;strokeColor=inherit;overflow=hidden;fillColor=none;top=0;left=0;bottom=0;right=0;pointerEvents=1;fontSize=16;fontFamily=Times New Roman;" vertex="1" parent="QZ5Pt41ZtIyeh1Iveysu-33">
          <mxGeometry x="64" width="64" height="40" as="geometry">
            <mxRectangle width="64" height="40" as="alternateBounds" />
          </mxGeometry>
        </mxCell>
        <mxCell id="QZ5Pt41ZtIyeh1Iveysu-36" value="&lt;font style=&quot;font-size: 20px;&quot;&gt;D4&lt;/font&gt;" style="shape=partialRectangle;html=1;whiteSpace=wrap;connectable=0;strokeColor=inherit;overflow=hidden;fillColor=none;top=0;left=0;bottom=0;right=0;pointerEvents=1;fontSize=16;fontFamily=Times New Roman;" vertex="1" parent="QZ5Pt41ZtIyeh1Iveysu-33">
          <mxGeometry x="128" width="62" height="40" as="geometry">
            <mxRectangle width="62" height="40" as="alternateBounds" />
          </mxGeometry>
        </mxCell>
        <mxCell id="QZ5Pt41ZtIyeh1Iveysu-37" value="&lt;font style=&quot;font-size: 20px;&quot;&gt;D5&lt;/font&gt;" style="shape=partialRectangle;html=1;whiteSpace=wrap;connectable=0;strokeColor=inherit;overflow=hidden;fillColor=none;top=0;left=0;bottom=0;right=0;pointerEvents=1;fontSize=16;fontFamily=Times New Roman;" vertex="1" parent="QZ5Pt41ZtIyeh1Iveysu-33">
          <mxGeometry x="190" width="66" height="40" as="geometry">
            <mxRectangle width="66" height="40" as="alternateBounds" />
          </mxGeometry>
        </mxCell>
        <mxCell id="QZ5Pt41ZtIyeh1Iveysu-38" value="" style="shape=table;startSize=0;container=1;collapsible=0;childLayout=tableLayout;fontSize=20;fontFamily=Times New Roman;fillColor=#dae8fc;strokeColor=#6c8ebf;" vertex="1" parent="1">
          <mxGeometry x="61" y="558" width="256" height="40" as="geometry" />
        </mxCell>
        <mxCell id="QZ5Pt41ZtIyeh1Iveysu-39" value="" style="shape=tableRow;horizontal=0;startSize=0;swimlaneHead=0;swimlaneBody=0;strokeColor=inherit;top=0;left=0;bottom=0;right=0;collapsible=0;dropTarget=0;fillColor=none;points=[[0,0.5],[1,0.5]];portConstraint=eastwest;fontSize=16;fontFamily=Times New Roman;" vertex="1" parent="QZ5Pt41ZtIyeh1Iveysu-38">
          <mxGeometry width="256" height="40" as="geometry" />
        </mxCell>
        <mxCell id="QZ5Pt41ZtIyeh1Iveysu-40" value="&lt;font style=&quot;font-size: 20px;&quot;&gt;D2&lt;/font&gt;" style="shape=partialRectangle;html=1;whiteSpace=wrap;connectable=0;strokeColor=inherit;overflow=hidden;fillColor=none;top=0;left=0;bottom=0;right=0;pointerEvents=1;fontSize=16;fontFamily=Times New Roman;" vertex="1" parent="QZ5Pt41ZtIyeh1Iveysu-39">
          <mxGeometry width="64" height="40" as="geometry">
            <mxRectangle width="64" height="40" as="alternateBounds" />
          </mxGeometry>
        </mxCell>
        <mxCell id="QZ5Pt41ZtIyeh1Iveysu-41" value="&lt;font style=&quot;font-size: 20px;&quot;&gt;D3&lt;/font&gt;" style="shape=partialRectangle;html=1;whiteSpace=wrap;connectable=0;strokeColor=inherit;overflow=hidden;fillColor=none;top=0;left=0;bottom=0;right=0;pointerEvents=1;fontSize=16;fontFamily=Times New Roman;" vertex="1" parent="QZ5Pt41ZtIyeh1Iveysu-39">
          <mxGeometry x="64" width="64" height="40" as="geometry">
            <mxRectangle width="64" height="40" as="alternateBounds" />
          </mxGeometry>
        </mxCell>
        <mxCell id="QZ5Pt41ZtIyeh1Iveysu-42" value="&lt;font style=&quot;font-size: 20px;&quot;&gt;D4&lt;/font&gt;" style="shape=partialRectangle;html=1;whiteSpace=wrap;connectable=0;strokeColor=inherit;overflow=hidden;fillColor=none;top=0;left=0;bottom=0;right=0;pointerEvents=1;fontSize=16;fontFamily=Times New Roman;" vertex="1" parent="QZ5Pt41ZtIyeh1Iveysu-39">
          <mxGeometry x="128" width="62" height="40" as="geometry">
            <mxRectangle width="62" height="40" as="alternateBounds" />
          </mxGeometry>
        </mxCell>
        <mxCell id="QZ5Pt41ZtIyeh1Iveysu-43" value="&lt;font style=&quot;font-size: 20px;&quot;&gt;D5&lt;/font&gt;" style="shape=partialRectangle;html=1;whiteSpace=wrap;connectable=0;strokeColor=inherit;overflow=hidden;fillColor=none;top=0;left=0;bottom=0;right=0;pointerEvents=1;fontSize=16;fontFamily=Times New Roman;" vertex="1" parent="QZ5Pt41ZtIyeh1Iveysu-39">
          <mxGeometry x="190" width="66" height="40" as="geometry">
            <mxRectangle width="66" height="40" as="alternateBounds" />
          </mxGeometry>
        </mxCell>
        <mxCell id="QZ5Pt41ZtIyeh1Iveysu-44" style="edgeStyle=orthogonalEdgeStyle;rounded=0;orthogonalLoop=1;jettySize=auto;html=1;entryX=0;entryY=0.5;entryDx=0;entryDy=0;strokeWidth=2;" edge="1" parent="1" source="QZ5Pt41ZtIyeh1Iveysu-45" target="QZ5Pt41ZtIyeh1Iveysu-54">
          <mxGeometry relative="1" as="geometry" />
        </mxCell>
        <mxCell id="QZ5Pt41ZtIyeh1Iveysu-45" value="&lt;font style=&quot;font-size: 20px;&quot;&gt;D3&lt;/font&gt;" style="rounded=0;whiteSpace=wrap;html=1;fillColor=#f8cecc;strokeColor=#b85450;fontFamily=Times New Roman;" vertex="1" parent="1">
          <mxGeometry x="359" y="449" width="60" height="40" as="geometry" />
        </mxCell>
        <mxCell id="QZ5Pt41ZtIyeh1Iveysu-46" style="edgeStyle=orthogonalEdgeStyle;rounded=0;orthogonalLoop=1;jettySize=auto;html=1;entryX=0;entryY=0.5;entryDx=0;entryDy=0;strokeWidth=2;" edge="1" parent="1" source="QZ5Pt41ZtIyeh1Iveysu-47" target="QZ5Pt41ZtIyeh1Iveysu-55">
          <mxGeometry relative="1" as="geometry" />
        </mxCell>
        <mxCell id="QZ5Pt41ZtIyeh1Iveysu-47" value="&lt;font style=&quot;font-size: 20px;&quot;&gt;D2&lt;/font&gt;" style="rounded=0;whiteSpace=wrap;html=1;fillColor=#f8cecc;strokeColor=#b85450;fontFamily=Times New Roman;" vertex="1" parent="1">
          <mxGeometry x="359" y="503" width="60" height="40" as="geometry" />
        </mxCell>
        <mxCell id="QZ5Pt41ZtIyeh1Iveysu-48" style="edgeStyle=orthogonalEdgeStyle;rounded=0;orthogonalLoop=1;jettySize=auto;html=1;entryX=0;entryY=0.5;entryDx=0;entryDy=0;strokeWidth=2;" edge="1" parent="1" source="QZ5Pt41ZtIyeh1Iveysu-49" target="QZ5Pt41ZtIyeh1Iveysu-56">
          <mxGeometry relative="1" as="geometry" />
        </mxCell>
        <mxCell id="QZ5Pt41ZtIyeh1Iveysu-49" value="&lt;font style=&quot;font-size: 20px;&quot;&gt;D1&lt;/font&gt;" style="rounded=0;whiteSpace=wrap;html=1;fillColor=#f8cecc;strokeColor=#b85450;fontFamily=Times New Roman;" vertex="1" parent="1">
          <mxGeometry x="359" y="558" width="60" height="40" as="geometry" />
        </mxCell>
        <mxCell id="QZ5Pt41ZtIyeh1Iveysu-50" value="TrainSet" style="text;html=1;align=center;verticalAlign=middle;whiteSpace=wrap;rounded=0;fontFamily=Times New Roman;fontSize=20;fontStyle=1" vertex="1" parent="1">
          <mxGeometry x="144" y="303" width="90" height="40" as="geometry" />
        </mxCell>
        <mxCell id="QZ5Pt41ZtIyeh1Iveysu-51" value="TestSet" style="text;html=1;align=center;verticalAlign=middle;whiteSpace=wrap;rounded=0;fontFamily=Times New Roman;fontSize=20;fontStyle=1" vertex="1" parent="1">
          <mxGeometry x="346" y="303" width="90" height="40" as="geometry" />
        </mxCell>
        <mxCell id="QZ5Pt41ZtIyeh1Iveysu-52" value="&lt;span style=&quot;font-family: &amp;quot;Times New Roman&amp;quot;; font-size: 20px;&quot;&gt;Test result 1&lt;/span&gt;" style="rounded=0;whiteSpace=wrap;html=1;fillColor=#f5f5f5;fontColor=#000000;strokeColor=#666666;" vertex="1" parent="1">
          <mxGeometry x="479" y="343" width="120" height="40" as="geometry" />
        </mxCell>
        <mxCell id="QZ5Pt41ZtIyeh1Iveysu-53" value="&lt;span style=&quot;font-family: &amp;quot;Times New Roman&amp;quot;; font-size: 20px;&quot;&gt;Test result 2&lt;/span&gt;" style="rounded=0;whiteSpace=wrap;html=1;fillColor=#f5f5f5;fontColor=#000000;strokeColor=#666666;" vertex="1" parent="1">
          <mxGeometry x="479" y="396" width="120" height="40" as="geometry" />
        </mxCell>
        <mxCell id="QZ5Pt41ZtIyeh1Iveysu-54" value="&lt;span style=&quot;font-family: &amp;quot;Times New Roman&amp;quot;; font-size: 20px;&quot;&gt;Test result 3&lt;/span&gt;" style="rounded=0;whiteSpace=wrap;html=1;fillColor=#f5f5f5;fontColor=#000000;strokeColor=#666666;" vertex="1" parent="1">
          <mxGeometry x="479" y="449" width="120" height="40" as="geometry" />
        </mxCell>
        <mxCell id="QZ5Pt41ZtIyeh1Iveysu-55" value="&lt;span style=&quot;font-family: &amp;quot;Times New Roman&amp;quot;; font-size: 20px;&quot;&gt;Test result 4&lt;/span&gt;" style="rounded=0;whiteSpace=wrap;html=1;fillColor=#f5f5f5;fontColor=#000000;strokeColor=#666666;" vertex="1" parent="1">
          <mxGeometry x="479" y="503" width="120" height="40" as="geometry" />
        </mxCell>
        <mxCell id="QZ5Pt41ZtIyeh1Iveysu-56" value="&lt;span style=&quot;font-family: &amp;quot;Times New Roman&amp;quot;; font-size: 20px;&quot;&gt;Test result 5&lt;/span&gt;" style="rounded=0;whiteSpace=wrap;html=1;fillColor=#f5f5f5;fontColor=#000000;strokeColor=#666666;" vertex="1" parent="1">
          <mxGeometry x="479" y="558" width="120" height="40" as="geometry" />
        </mxCell>
        <mxCell id="QZ5Pt41ZtIyeh1Iveysu-57" value="" style="edgeStyle=orthogonalEdgeStyle;rounded=0;orthogonalLoop=1;jettySize=auto;html=1;strokeWidth=2;" edge="1" parent="1" source="QZ5Pt41ZtIyeh1Iveysu-58" target="QZ5Pt41ZtIyeh1Iveysu-59">
          <mxGeometry relative="1" as="geometry" />
        </mxCell>
        <mxCell id="QZ5Pt41ZtIyeh1Iveysu-58" value="" style="shape=curlyBracket;whiteSpace=wrap;html=1;rounded=1;flipH=1;labelPosition=right;verticalLabelPosition=middle;align=left;verticalAlign=middle;strokeWidth=2;" vertex="1" parent="1">
          <mxGeometry x="609" y="359" width="20" height="220" as="geometry" />
        </mxCell>
        <mxCell id="QZ5Pt41ZtIyeh1Iveysu-59" value="Average result" style="rounded=0;whiteSpace=wrap;html=1;fontSize=20;fontFamily=Times New Roman;fillColor=#ffe6cc;strokeColor=#d79b00;" vertex="1" parent="1">
          <mxGeometry x="669" y="449" width="130" height="40" as="geometry" />
        </mxCell>
      </root>
    </mxGraphModel>
  </diagram>
</mxfile>
